<?xml version="1.0" encoding="UTF-8"?>
<!DOCTYPE svg PUBLIC "-//W3C//DTD SVG 1.1//EN" "http://www.w3.org/Graphics/SVG/1.1/DTD/svg11.dtd">
<!-- Creator: CorelDRAW 2018 (64 Bit Versão de avaliação) -->
<svg xmlns="http://www.w3.org/2000/svg" xml:space="preserve" width="16.9332mm" height="16.9332mm" version="1.1" style="shape-rendering:geometricPrecision; text-rendering:geometricPrecision; image-rendering:optimizeQuality; fill-rule:evenodd; clip-rule:evenodd"
viewBox="0 0 1693.32 1693.32"
 xmlns:xlink="http://www.w3.org/1999/xlink">
 <defs>
  <style type="text/css">
   <![CDATA[
    .fil1 {fill:#FEFEFE}
    .fil0 {fill:darkred}
   ]]>
  </style>
 </defs>
 <g id="Camada_x0020_1">
  <metadata id="CorelCorpID_0Corel-Layer"/>
  <g id="_2300338557008">
   <circle class="fil0" cx="846.66" cy="846.66" r="846.66"/>
   <g>
    <path class="fil1" d="M1293.78 801.16l49.63 0 0 44.67c0,8.64 -17.51,4.97 -41.36,4.97 -4.47,0 -4.56,-0.79 -8.27,-1.66l0 -47.98zm-926.6 41.36c0,-23.84 -3.67,-41.36 4.96,-41.36l44.68 0c0,61.46 10.37,49.64 -47.98,49.64 -0.87,-3.72 -1.66,-3.81 -1.66,-8.28zm931.56 -473.22c0,-39.29 56.26,-35.32 56.26,-1.66 0,13.32 -10.41,28.13 -23.17,28.13l-9.93 0c-12.01,0 -23.16,-14.57 -23.16,-26.47zm-959.69 0c0,-38.25 56.26,-37.35 56.26,0 0,12.93 -10.98,26.47 -23.17,26.47l-9.92 0c-12.02,0 -23.17,-14.57 -23.17,-26.47zm451.72 -51.3l102.58 0 0 107.56 -105.89 0 -1.69 -91.04c-0.1,-7.65 -2.22,-16.52 5,-16.52zm132.37 -34.74l-172.09 0 0 67.84 -322.65 0c-10.99,-47.19 -72.48,-59.6 -106.34,-28.57 -11.96,10.96 -17.75,27.81 -18.99,43.9 -0.55,7.15 2.53,20.08 4.74,25.83 8.33,21.67 29.9,39.91 54.41,39.91 19.68,0 32.59,-2.82 47.5,-15.36 9.72,-8.17 17.14,-27.39 20.34,-29.31 7.02,-4.21 68.11,-1.93 86.24,-1.2 4.11,0.17 -1.96,-0.04 3.67,-0.02 4.42,0.01 5.88,0.27 8.84,0.4l99.87 -0.9c8.17,0.1 11.35,2.12 19.35,1.28l18.64 -1.22c-3.47,4.74 -6.24,4.78 -12.53,7.33 -18.54,7.5 -37.32,17.96 -53.98,28.75l-61.3 44.6c-4.06,3.6 -5.63,6.08 -10.22,9.63 -41.19,31.81 -95.53,110.26 -114.92,158.1 -8.23,20.31 -15.76,37.97 -22.08,60.65 -4.56,16.36 -14.53,50.04 -14.53,69.86l-44.68 0 0 120.78 120.79 0 0 -115.82c0,-8.78 -20.13,-4.96 -39.71,-4.96 0,-24.67 9.76,-49.55 16.18,-71.52 6.29,-21.54 15.61,-43.73 25.69,-62.01 10.23,-18.53 20.47,-37.95 32.59,-55.1 12,-16.97 25.33,-34.49 40.12,-49.23 38.13,-38 76.59,-69.01 124.75,-93.66 37.68,-19.28 91.07,-32.39 98.21,-35.81l0 64.53 173.74 0c8.31,0 4.95,-29.67 4.97,-44.68 0.02,-28.88 -7.09,-26.76 19.45,-21.11 51.13,10.88 100.99,30.34 144.37,59.15 40.2,26.7 77.87,57.67 107.55,95.97 33.2,42.86 53.56,79.22 73.75,131.43 9.55,24.71 18.34,55.54 20.55,82.04 -6.62,0 -13.26,0.04 -19.87,-0.02 -25.37,-0.24 -18.19,0.73 -18.19,44.69 0,13.79 0.01,27.58 0,41.37l1.5 33.92c0.02,0.14 0.04,0.57 0.16,0.82l119.13 0c1.64,-3.96 0,-108.13 0,-120.78l-46.33 0c-1.85,-22.27 -8.24,-47.29 -14.67,-68.06 -6.87,-22.15 -13.48,-41.56 -22.83,-61.56 -17.32,-37.06 -36.95,-72.31 -63.05,-104.07l-18.96 -22.4c-31.62,-31.96 -64.12,-62.49 -102.93,-85.71l-54.99 -29.38c-4.89,-2.44 -10.91,-3.81 -13.78,-7.74l16.46 0.81c29.07,-3.07 77.07,-0.81 107.63,-0.81 17,0 90.58,-2.52 99.28,1.66 3.82,2.29 10.94,25.36 30.87,36.97 16.1,9.38 37.71,10.83 54.97,4.2 64.71,-24.87 48.02,-123.9 -22.96,-123.9 -24.12,0 -39.6,10.72 -52.48,26.94 -3.35,4.2 -7.43,13.75 -8.74,19.39l-335.89 0c-4.49,-19.24 -1.66,-47.35 -1.66,-69.5 -2.02,1.14 -1.77,1.66 -4.96,1.66z"/>
    <path class="fil1" d="M704.73 1279.35l274.66 0c3.82,0 4.97,1.15 4.97,4.96l0 92.66 -279.63 0 0 -97.62zm36.4 -57.91l201.86 0c3.81,0 4.97,1.15 4.97,4.96l0 18.2 -206.83 0 0 -23.16zm71.15 -329.28c0,-38.34 49.18,-44.33 61.28,-13.28 9.95,25.51 -14.09,51.65 -41.67,41.66 -9.97,-3.61 -19.61,-15.2 -19.61,-28.38zm-36.41 -1.65c0,20.49 8.35,35.21 17.91,46.62 13.46,16.07 34.29,21.22 54.9,21.22 32.83,0 62.87,-29 62.87,-69.5 0,-31.65 -24.08,-56.92 -49.63,-62.87l0 -277.98 50.42 101.8c4.61,9.21 8.28,16.99 12.47,25.59l137.32 282.96c-11.44,6.05 -28.65,21.35 -38.44,31.05 -4.73,4.69 -7.88,6.03 -12.51,10.66 -4.63,4.63 -5.97,7.78 -10.66,12.51 -35.77,36.1 -58.55,86.59 -73.03,135.45 -1.98,6.69 -3,11.62 -4.94,18.22 -1.71,5.8 -3.88,14.51 -4.38,20.45l-147.26 0c-2.95,-6.16 -7.66,-28.23 -9.92,-36.41 -9.2,-33.25 -25.19,-69.85 -42.29,-98.35l-16.35 -23.37c-1.75,-2.06 -1.35,-1.61 -3.09,-3.53l-22.25 -24.08c-8.12,-8.12 -15.25,-14.75 -24.07,-22.25 -7.06,-6.01 -21.66,-15.55 -25.98,-22.01l73.92 -152.75c2.44,-4.86 3.45,-8.28 5.51,-12.7l19.29 -38.62c8.58,-17.14 15.68,-33.01 24.27,-50.19l75.56 -152.78 0 276.33c-25.72,5.99 -49.64,32.65 -49.64,64.53zm-195.24 81.07c7.33,1.71 7.34,3.91 13.75,7.76 26.35,15.86 68.06,55.94 84.36,77.8 20.14,27 51.46,97.66 54.11,129.55l-28.12 0 0 57.91 -36.41 0 0 167.12 350.79 0c2.52,-10.53 0.73,-23.33 1.17,-34.59 1.53,-39.19 0.48,-91.95 0.48,-132.53l-36.4 0 -0.36 -52.42c-0.05,-0.52 -0.27,-2.96 -0.42,-3.32 -1.17,-2.8 1.82,-2.22 -7.19,-2.34 -7.12,-0.1 -14.63,0.17 -21.82,0.17 9.09,-38.99 30.42,-98.83 54.36,-129.31 24.29,-30.92 51.9,-55.17 84.39,-77.77 16.97,-11.8 18.82,-2.33 0.24,-39.46l-57.36 -118.03c-5.36,-10.73 -9.76,-18.75 -14.48,-30.19 -4.34,-10.5 -9.66,-19.76 -14.75,-29.93 -5.34,-10.68 -9.49,-19.25 -14.66,-30.02l-115.5 -238.59 -64.53 0 -72.25 147.83c-24.79,52.07 -57.53,113.98 -79.79,163.43l-51.48 105.71c-4.99,9.98 -9.37,19.75 -14.67,30.01 -3,5.8 -12.97,25.25 -13.46,31.21z"/>
   </g>
  </g>
 </g>
</svg>
