<?xml version="1.0" encoding="UTF-8"?>
<!DOCTYPE svg PUBLIC "-//W3C//DTD SVG 1.1//EN" "http://www.w3.org/Graphics/SVG/1.1/DTD/svg11.dtd">
<!-- Creator: CorelDRAW 2018 (64 Bit Versão de avaliação) -->
<svg xmlns="http://www.w3.org/2000/svg" xml:space="preserve" width="16.9332mm" height="16.9332mm" version="1.1" style="shape-rendering:geometricPrecision; text-rendering:geometricPrecision; image-rendering:optimizeQuality; fill-rule:evenodd; clip-rule:evenodd"
viewBox="0 0 1693.32 1693.32"
 xmlns:xlink="http://www.w3.org/1999/xlink">
 <defs>
  <style type="text/css">
   <![CDATA[
    .fil0 {fill:darkred}
    .fil1 {fill:#F1F1F1}
   ]]>
  </style>
 </defs>
 <g id="Camada_x0020_1">
  <metadata id="CorelCorpID_0Corel-Layer"/>
  <g id="_2300263731008">
   <circle class="fil0" cx="846.66" cy="846.66" r="846.66"/>
   <g>
    <path class="fil1" d="M364.48 1233.27l0 -608.15 964.35 0 0 608.15c0,7.87 -1.82,12.12 -4.34,17.37 -4.87,1.14 -4.99,2.18 -10.86,2.18l-933.94 0c-5.87,0 -5.99,-1.04 -10.86,-2.18 -2.52,-5.25 -4.35,-9.5 -4.35,-17.37zm0 -773.22c0,-7.87 1.83,-12.12 4.35,-17.37 4.87,-1.14 4.99,-2.18 10.86,-2.18l933.94 0c5.87,0 5.99,1.04 10.86,2.18 8.14,16.96 4.34,84.09 4.34,106.42l-964.35 0 0 -89.05zm-73.84 -13.03l0 799.28c0,32.81 26.98,67.53 59.79,77.04 12.82,3.71 24.56,5.49 40.12,5.49l912.22 0c40.8,0 73.23,-14.13 89.84,-46.98 5.14,-10.15 10.07,-21.26 10.07,-35.55l0 -799.28c0,-25.72 -15.93,-48.93 -30.65,-60.57 -11.02,-8.7 -13.03,-11.76 -29.16,-16.45 -12.79,-3.73 -24.54,-5.52 -40.1,-5.52l-912.22 0c-54.2,0 -99.91,31.93 -99.91,82.54z"/>
    <path class="fil1" d="M712 1118.15l0 10.86c0,14.74 18.65,30.41 32.58,30.41 31.43,0 31.76,-9.18 50.06,-41.16l192.53 -333.08c7.79,-13.89 11.53,-15.18 11.53,-34.09 0,-17.43 -16.28,-32.58 -41.27,-32.58 -23.85,0 -32.07,24.17 -41.14,39.22 -10.28,17.05 -18.84,33.34 -29.28,51.09 -14.71,25.02 -175.01,296.55 -175.01,309.33z"/>
    <path class="fil1" d="M1157.25 935.71c-17.69,26.42 -120.08,110.35 -125.85,134.96 -2.92,12.44 0.26,22.3 7.21,31.46 30.53,40.25 63.32,-3.59 80.09,-20.36l90.13 -90.13c49.66,-49.65 56.11,-53.58 4.35,-105.34l-91.22 -91.22c-12.33,-12.33 -31.89,-37.47 -53.76,-37.47 -22.88,0 -40.83,23.09 -37.28,43.74 3.38,19.56 65.46,74.57 82.35,91.46 10.98,10.98 33.07,35.6 43.98,42.9z"/>
    <path class="fil1" d="M444.85 937.88c0,20.68 25.64,39.76 37.46,51.59l112.93 112.96c32.06,32.51 66.8,9.87 66.8,-27.71 0,-17.4 -43.58,-55.53 -59.18,-71.14l-66.79 -65.7 97.19 -98.28c22.85,-22.85 28.78,-21.76 28.78,-49.41 0,-16.43 -19.8,-32.58 -36.92,-32.58 -21.57,0 -40.54,24.25 -52.67,36.38l-90.14 90.14c-12.33,12.33 -37.46,31.8 -37.46,53.75z"/>
    <path class="fil1" d="M507.83 496.97c0,34.28 56.47,34.28 56.47,0 0,-40.18 -56.47,-40.18 -56.47,0z"/>
    <path class="fil1" d="M596.88 494.8c0,36.48 56.47,39.73 56.47,-2.17 0,-33.58 -56.47,-34.32 -56.47,2.17z"/>
    <path class="fil1" d="M418.78 492.63c0,10.92 -0.7,13.82 6.92,21.32 21.56,21.18 49.55,3.08 49.55,-19.15 0,-16.31 -24.51,-40.71 -46.91,-20.85 -4.26,3.78 -9.56,11.48 -9.56,18.68z"/>
   </g>
  </g>
 </g>
</svg>
